<svg width="215" height="203" viewBox="0 0 215 203" fill="none" xmlns="http://www.w3.org/2000/svg">
<path d="M108 0L80.4545 73.4545L7 101L80.4545 128.545L108 202L135.545 128.545L209 101L135.545 73.4545L108 0Z" fill="#FCF451"/>
<path d="M179.495 29.6594L108.077 62.122L36.6592 29.6594L69.1219 101.077L36.6592 172.495L108.077 140.032L179.495 172.495L147.032 101.077L179.495 29.6594Z" fill="#FCF451"/>
<path d="M158.747 13.7788L98.1649 63.6195L20.7787 50.7473L70.6195 111.33L57.7472 188.716L118.33 138.875L195.716 151.747L145.875 91.165L158.747 13.7788Z" fill="#FCF451"/>
<path d="M134.15 3.4513L88.5321 67.2737L10.4512 74.8691L74.2735 120.487L81.8689 198.568L127.487 134.746L205.568 127.151L141.746 81.5322L134.15 3.4513Z" fill="#FCF451"/>
<path d="M81.4881 3.07044L73.8927 81.1514L10.0704 126.77L88.1513 134.365L133.77 198.187L141.365 120.107L205.187 74.4882L127.106 66.8928L81.4881 3.07044Z" fill="#FCF451"/>
<path d="M57.1289 13.1604L70.0011 90.5466L20.1603 151.129L97.5465 138.257L158.129 188.098L145.257 110.711L195.097 50.129L117.711 63.0012L57.1289 13.1604Z" fill="#FCF451"/>
<path d="M94 78V123L132 100.5L94 78Z" fill="black"/>
</svg>
