<svg width="900" height="275" viewBox="0 0 900 275" fill="none" xmlns="http://www.w3.org/2000/svg">
<ellipse cx="450" cy="137.5" rx="450" ry="137.5" fill="#FCF451"/>
<path d="M135.094 182.01C122.073 182.01 110.103 181.21 99.1858 179.61C88.3684 178.111 78.9532 175.512 70.9402 171.813C63.0275 168.014 56.8675 162.866 52.4604 156.369C48.1535 149.871 46 141.674 46 131.777C46 121.881 48.2036 113.634 52.6107 107.036C57.0178 100.338 63.328 95.0401 71.5412 91.1415C79.8546 87.1429 89.7205 84.2939 101.139 82.5945C112.658 80.8951 125.478 80.0454 139.601 80.0454C158.131 80.0454 173.656 81.7448 186.176 85.1436C198.797 88.5424 208.412 93.3907 215.023 99.6885C221.633 105.886 225.189 113.284 225.69 121.881H186.627C185.425 119.681 183.221 117.582 180.016 115.583C176.811 113.484 172.003 111.784 165.593 110.485C159.183 109.185 150.519 108.535 139.601 108.535C126.78 108.535 116.364 109.335 108.351 110.935C100.338 112.434 94.4782 114.883 90.7722 118.282C87.0663 121.681 85.2133 126.179 85.2133 131.777C85.2133 136.675 87.1163 140.724 90.9225 143.923C94.7286 147.122 100.838 149.521 109.252 151.12C117.666 152.72 128.784 153.52 142.606 153.52C152.322 153.52 160.735 153.12 167.847 152.32C175.058 151.42 181.569 150.071 187.378 148.271C193.288 146.472 199.147 144.223 204.956 141.524L208.562 145.872C202.352 157.568 193.137 166.515 180.918 172.713C168.698 178.911 153.423 182.01 135.094 182.01ZM198.346 179.011C198.346 176.012 198.746 172.613 199.548 168.814C200.349 165.015 201.351 161.067 202.553 156.968C203.855 152.77 205.107 148.821 206.309 145.122H147.714V129.378H227.793V179.011H198.346Z" fill="#111111"/>
<path d="M314.91 181.26C298.985 181.26 285.713 179.96 275.096 177.361C264.579 174.762 256.666 170.614 251.358 164.916C246.149 159.218 243.545 151.72 243.545 142.423C243.545 133.127 246.149 125.629 251.358 119.931C256.666 114.133 264.579 109.935 275.096 107.336C285.713 104.637 298.985 103.287 314.91 103.287C330.736 103.287 343.857 104.637 354.274 107.336C364.791 109.935 372.654 114.133 377.862 119.931C383.07 125.629 385.675 133.127 385.675 142.423C385.675 151.72 383.07 159.218 377.862 164.916C372.654 170.614 364.791 174.762 354.274 177.361C343.857 179.96 330.736 181.26 314.91 181.26ZM314.91 159.517C322.322 159.517 328.532 158.918 333.54 157.718C338.549 156.419 342.355 154.519 344.959 152.02C347.563 149.421 348.865 146.222 348.865 142.423C348.865 138.625 347.563 135.426 344.959 132.827C342.455 130.228 338.699 128.278 333.691 126.979C328.683 125.679 322.423 125.03 314.91 125.03C307.498 125.03 301.188 125.679 295.98 126.979C290.872 128.278 286.965 130.228 284.261 132.827C281.657 135.326 280.355 138.525 280.355 142.423C280.355 146.222 281.657 149.421 284.261 152.02C286.865 154.519 290.721 156.419 295.83 157.718C301.038 158.918 307.398 159.517 314.91 159.517Z" fill="#111111"/>
<path d="M396.886 152.62H430.09C431.492 155.219 434.147 157.018 438.053 158.018C442.059 159.018 447.768 159.517 455.18 159.517C460.89 159.517 465.096 159.218 467.801 158.618C470.605 158.018 472.408 157.218 473.21 156.219C474.111 155.219 474.562 154.169 474.562 153.07C474.562 151.37 473.61 150.221 471.707 149.621C469.904 148.921 466.799 148.521 462.392 148.421C457.985 148.221 451.925 148.121 444.213 148.121C436.901 148.121 430.34 147.822 424.531 147.222C418.822 146.522 413.964 145.472 409.957 144.073C405.951 142.573 402.896 140.524 400.793 137.925C398.689 135.326 397.638 132.077 397.638 128.178C397.638 123.38 399.19 119.382 402.295 116.183C405.4 112.884 409.607 110.335 414.915 108.535C420.224 106.636 426.334 105.287 433.245 104.487C440.256 103.687 447.568 103.287 455.18 103.287C467.801 103.287 478.117 104.587 486.13 107.186C494.143 109.685 500.053 113.084 503.859 117.382C507.665 121.681 509.518 126.529 509.418 131.927H477.116C476.014 129.328 473.911 127.529 470.806 126.529C467.801 125.529 462.592 125.03 455.18 125.03C448.169 125.03 443.061 125.579 439.856 126.679C436.751 127.679 435.198 129.328 435.198 131.627C435.198 133.127 435.949 134.276 437.452 135.076C439.054 135.776 442.009 136.276 446.316 136.576C450.723 136.875 457.134 137.025 465.547 137.025C471.357 137.025 477.016 137.225 482.525 137.625C488.134 138.025 493.142 138.875 497.549 140.174C502.056 141.474 505.612 143.473 508.216 146.172C510.82 148.871 512.122 152.57 512.122 157.268C512.122 162.966 509.769 167.615 505.061 171.213C500.453 174.712 493.893 177.261 485.379 178.861C476.865 180.46 466.799 181.26 455.18 181.26C445.064 181.26 436.5 180.61 429.489 179.31C422.578 178.011 416.919 176.312 412.512 174.212C408.105 172.013 404.699 169.664 402.295 167.165C399.991 164.566 398.439 162.017 397.638 159.517C396.936 156.918 396.686 154.619 396.886 152.62Z" fill="#111111"/>
<path d="M523.36 152.62H556.564C557.966 155.219 560.62 157.018 564.526 158.018C568.533 159.018 574.242 159.517 581.654 159.517C587.363 159.517 591.57 159.218 594.274 158.618C597.079 158.018 598.882 157.218 599.683 156.219C600.585 155.219 601.035 154.169 601.035 153.07C601.035 151.37 600.084 150.221 598.181 149.621C596.378 148.921 593.273 148.521 588.866 148.421C584.459 148.221 578.399 148.121 570.686 148.121C563.375 148.121 556.814 147.822 551.005 147.222C545.295 146.522 540.438 145.472 536.431 144.073C532.425 142.573 529.37 140.524 527.266 137.925C525.163 135.326 524.111 132.077 524.111 128.178C524.111 123.38 525.664 119.382 528.769 116.183C531.874 112.884 536.08 110.335 541.389 108.535C546.698 106.636 552.807 105.287 559.719 104.487C566.73 103.687 574.042 103.287 581.654 103.287C594.274 103.287 604.591 104.587 612.604 107.186C620.617 109.685 626.526 113.084 630.333 117.382C634.139 121.681 635.992 126.529 635.892 131.927H603.589C602.488 129.328 600.384 127.529 597.279 126.529C594.274 125.529 589.066 125.03 581.654 125.03C574.643 125.03 569.534 125.579 566.329 126.679C563.224 127.679 561.672 129.328 561.672 131.627C561.672 133.127 562.423 134.276 563.925 135.076C565.528 135.776 568.483 136.276 572.79 136.576C577.197 136.875 583.607 137.025 592.021 137.025C597.83 137.025 603.489 137.225 608.998 137.625C614.607 138.025 619.615 138.875 624.022 140.174C628.53 141.474 632.085 143.473 634.69 146.172C637.294 148.871 638.596 152.57 638.596 157.268C638.596 162.966 636.242 167.615 631.534 171.213C626.927 174.712 620.366 177.261 611.853 178.861C603.339 180.46 593.273 181.26 581.654 181.26C571.538 181.26 562.974 180.61 555.963 179.31C549.051 178.011 543.392 176.312 538.985 174.212C534.578 172.013 531.173 169.664 528.769 167.165C526.465 164.566 524.912 162.017 524.111 159.517C523.41 156.918 523.16 154.619 523.36 152.62Z" fill="#111111"/>
<path d="M690.249 67V89.4921H652.087V67H690.249ZM653.139 105.536H689.197V179.011H653.139V105.536Z" fill="#111111"/>
<path d="M796.96 181.26C787.945 181.26 779.832 180.36 772.62 178.561C765.409 176.661 759.249 174.012 754.14 170.614C749.032 167.115 745.126 162.966 742.422 158.168C739.717 153.37 738.365 148.071 738.365 142.274C738.365 136.476 739.717 131.227 742.422 126.529C745.126 121.731 749.032 117.632 754.14 114.233C759.249 110.735 765.409 108.086 772.62 106.286C779.832 104.387 787.945 103.437 796.96 103.437C807.777 103.437 817.393 104.987 825.806 108.086C834.32 111.084 840.981 115.483 845.788 121.281C850.596 127.079 853 134.076 853 142.274C853 150.87 850.596 158.068 845.788 163.866C840.981 169.664 834.32 174.012 825.806 176.911C817.393 179.81 807.777 181.26 796.96 181.26ZM783.438 158.318C790.249 158.318 796.058 157.718 800.866 156.518C805.674 155.319 809.33 153.57 811.834 151.27C814.338 148.871 815.59 145.872 815.59 142.274C815.59 136.975 812.785 132.977 807.176 130.278C801.567 127.579 793.654 126.229 783.438 126.229C775.825 126.229 768.814 126.679 762.404 127.579C756.094 128.478 750.985 130.128 747.079 132.527C743.273 134.826 741.37 138.075 741.37 142.274C741.37 146.472 743.273 149.771 747.079 152.17C750.985 154.469 756.094 156.069 762.404 156.968C768.814 157.868 775.825 158.318 783.438 158.318ZM705.312 105.536H739.266L741.37 134.026V209H705.312V105.536Z" fill="#111111"/>
</svg>
