<svg width="277" height="84" viewBox="0 0 277 84" fill="none" xmlns="http://www.w3.org/2000/svg">
<path d="M138.5 3.5C176.5 3.5 210.768 8.17585 235.419 15.6514C247.766 19.3957 257.503 23.7837 264.076 28.4961C270.734 33.2694 273.5 37.8806 273.5 42C273.5 46.1194 270.734 50.7306 264.076 55.5039C257.503 60.2163 247.766 64.6043 235.419 68.3486C210.768 75.8242 176.5 80.5 138.5 80.5C100.5 80.5 66.2325 75.8242 41.5811 68.3486C29.2338 64.6043 19.4967 60.2163 12.9238 55.5039C6.26619 50.7306 3.5 46.1194 3.5 42C3.5 37.8806 6.26619 33.2694 12.9238 28.4961C19.4967 23.7837 29.2338 19.3957 41.5811 15.6514C66.2325 8.17585 100.5 3.5 138.5 3.5Z" stroke="#0DB13C" stroke-width="7"/>
</svg>
