<svg width="215" height="203" viewBox="0 0 215 203" fill="none" xmlns="http://www.w3.org/2000/svg">
<path fill-rule="evenodd" clip-rule="evenodd" d="M140.953 22.8375C147.395 19.8181 154.61 18.8572 161.618 20.0856C168.625 21.314 175.083 24.6719 180.114 29.7024C185.144 34.7328 188.502 41.1912 189.73 48.1985C190.959 55.2057 189.998 62.4212 186.979 68.8628C193.669 71.2825 199.451 75.7052 203.537 81.5287C207.624 87.3523 209.816 94.2937 209.816 101.408C209.816 108.522 207.624 115.464 203.537 121.287C199.451 127.111 193.669 131.534 186.979 133.953C189.998 140.395 190.959 147.61 189.73 154.618C188.502 161.625 185.144 168.083 180.114 173.114C175.083 178.144 168.625 181.502 161.618 182.73C154.61 183.959 147.395 182.998 140.953 179.979C138.534 186.669 134.111 192.451 128.287 196.537C122.464 200.624 115.522 202.816 108.408 202.816C101.294 202.816 94.3523 200.624 88.5287 196.537C82.7052 192.451 78.2825 186.669 75.8628 179.979C69.4212 182.998 62.2057 183.959 55.1985 182.73C48.1912 181.502 41.7328 178.144 36.7024 173.114C31.6719 168.083 28.314 161.625 27.0856 154.618C25.8572 147.61 26.8181 140.395 29.8375 133.953C23.1473 131.534 17.3654 127.111 13.279 121.287C9.19248 115.464 7 108.522 7 101.408C7 94.2937 9.19248 87.3523 13.279 81.5287C17.3654 75.7052 23.1473 71.2825 29.8375 68.8628C26.8181 62.4212 25.8572 55.2057 27.0856 48.1985C28.314 41.1912 31.6719 34.7328 36.7024 29.7024C41.7328 24.6719 48.1912 21.314 55.1985 20.0856C62.2057 18.8572 69.4212 19.8181 75.8628 22.8375C78.2825 16.1473 82.7052 10.3654 88.5287 6.27896C94.3523 2.19248 101.294 0 108.408 0C115.522 0 122.464 2.19248 128.287 6.27896C134.111 10.3654 138.534 16.1473 140.953 22.8375Z" fill="#FCF451"/>
<path d="M100.231 108.021V100.574H106.998C109.784 100.574 111.741 100.277 112.869 99.6809C113.997 99.052 114.561 98.1087 114.561 96.8511C114.561 95.3286 113.931 94.3026 112.67 93.773C111.443 93.2104 109.552 92.9291 106.998 92.9291C105.074 92.9291 103.614 93.078 102.619 93.3759C101.624 93.6407 100.928 93.9716 100.53 94.3688C100.132 94.766 99.8662 95.13 99.7335 95.461H88.0407C87.9412 94.766 88.0241 93.9054 88.2895 92.8794C88.5549 91.8203 89.069 90.7281 89.8319 89.6028C90.628 88.4775 91.7559 87.4184 93.2154 86.4255C94.6749 85.3995 96.5325 84.5721 98.7881 83.9433C101.044 83.3144 103.78 83 106.998 83C110.779 83 113.947 83.331 116.501 83.9929C119.089 84.6548 121.145 85.5981 122.671 86.8227C124.23 88.0142 125.341 89.4208 126.005 91.0426C126.668 92.6643 127 94.435 127 96.3546C127 98.9362 126.303 101.104 124.91 102.858C123.517 104.579 121.659 105.87 119.338 106.73C117.016 107.591 114.461 108.021 111.675 108.021H100.231ZM100.132 118V110.504H112.77V118H100.132Z" fill="#111111"/>
</svg>
